HIERARCHY
ROOT RootJoint
{
    OFFSET   0.000000   0.000000   0.000000
    CHANNELS 6 Xposition Yposition Zposition Xrotation Yrotation Zrotation
    JOINT pelvis_lowerback
    {
        OFFSET   0.000000   0.093605   0.000000
        CHANNELS 3 Xrotation Yrotation Zrotation
        JOINT lowerback_torso
        {
            OFFSET   0.000000   0.100000   0.000000
            CHANNELS 3 Xrotation Yrotation Zrotation
            JOINT torso_head
            {
                OFFSET   0.000000   0.282350   0.000000
                CHANNELS 3 Xrotation Yrotation Zrotation
                End Site
                {
                    OFFSET   0.000000   0.192650   0.000000
                }
            }
            JOINT rTorso_Clavicle
            {
                OFFSET  -0.001000   0.157500   0.000000
                CHANNELS 3 Xrotation Yrotation Zrotation
                JOINT rShoulder
                {
                    OFFSET  -0.117647   0.000000   0.000000
                    CHANNELS 3 Xrotation Yrotation Zrotation
                    JOINT rElbow
                    {
                        OFFSET  -0.245000   0.000000   0.000000
                        CHANNELS 3 Xrotation Yrotation Zrotation
                        JOINT rWrist
                        {
                            OFFSET  -0.240000   0.000000   0.000000
                            CHANNELS 3 Xrotation Yrotation Zrotation
                            End Site
                            {
                                OFFSET  -0.116353  -0.002500   0.000000
                            }
                        }
                    }
                }
            }
            JOINT lTorso_Clavicle
            {
                OFFSET   0.001000   0.157500   0.000000
                CHANNELS 3 Xrotation Yrotation Zrotation
                JOINT lShoulder
                {
                    OFFSET   0.117647   0.000000   0.000000
                    CHANNELS 3 Xrotation Yrotation Zrotation
                    JOINT lElbow
                    {
                        OFFSET   0.245000   0.000000   0.000000
                        CHANNELS 3 Xrotation Yrotation Zrotation
                        JOINT lWrist
                        {
                            OFFSET   0.240000   0.000000   0.000000
                            CHANNELS 3 Xrotation Yrotation Zrotation
                            End Site
                            {
                                OFFSET   0.116353  -0.002500   0.000000
                            }
                        }
                    }
                }
            }
        }
    }
    JOINT rHip
    {
        OFFSET  -0.100000  -0.051395   0.000000
        CHANNELS 3 Xrotation Yrotation Zrotation
        JOINT rKnee
        {
            OFFSET   0.000000  -0.410000   0.000000
            CHANNELS 3 Xrotation Yrotation Zrotation
            JOINT rAnkle
            {
                OFFSET   0.000000  -0.390000   0.000000
                CHANNELS 3 Xrotation Yrotation Zrotation
                JOINT rToeJoint
                {
                    OFFSET   0.000000  -0.050000   0.130000
                    CHANNELS 3 Xrotation Yrotation Zrotation
                    End Site
                    {
                        OFFSET  -0.010000   0.002000   0.060000
                    }
                }
            }
        }
    }
    JOINT lHip
    {
        OFFSET   0.100000  -0.051395   0.000000
        CHANNELS 3 Xrotation Yrotation Zrotation
        JOINT lKnee
        {
            OFFSET   0.000000  -0.410000   0.000000
            CHANNELS 3 Xrotation Yrotation Zrotation
            JOINT lAnkle
            {
                OFFSET   0.000000  -0.390000   0.000000
                CHANNELS 3 Xrotation Yrotation Zrotation
                JOINT lToeJoint
                {
                    OFFSET   0.000000  -0.050000   0.130000
                    CHANNELS 3 Xrotation Yrotation Zrotation
                    End Site
                    {
                        OFFSET   0.010000   0.002000   0.060000
                    }
                }
            }
        }
    }
}
MOTION
Frames: 7
Frame Time:   0.008333
 -2.356005   0.864947   4.202181  -6.593879  26.107733   4.158830   6.400427  13.060483  -5.702909  -2.239164   8.384321  -5.120209   0.071358  -4.569168   0.556693  -0.916934  10.623675  -2.750628   3.942153  20.864066  29.103550  -0.009350  71.197295   0.006483   4.836002   7.160453  -7.067989  -9.609583   8.399278   5.678753 -40.885226   8.366341  -9.253104  -0.302847 -81.165204  -0.278890  -2.762050  -4.932776  25.162791  19.502163 -12.807133   1.590049  18.315918   0.002053   0.000630 -27.810617 -18.747554  -4.682964  -3.152876  -0.001094  -0.002752 -23.590892 -12.761205  -0.276990  24.246954   0.003885  -0.003241  -0.080514  -7.725744  -4.670172  -1.267703   0.000036  -0.000043
 -2.353406   0.864549   4.204513  -6.495635  25.967620   4.225101   6.395427  13.152132  -5.672059  -2.298419   8.398712  -5.203862   0.000419  -4.615951   0.585971  -0.820004  10.319483  -2.787193   4.026486  20.047784  29.043277  -0.006718  71.131985   0.004342   4.831326   7.411851  -7.223756  -9.759877   8.499590   5.596555 -41.492541   8.148315  -9.067623  -0.372071 -82.727654  -0.351878  -2.713445  -4.845420  25.283021  19.467389 -12.691370   1.275099  18.562647   0.002014   0.000401 -27.415146 -18.667492  -4.358938  -4.988306  -0.001709  -0.005020 -23.855274 -12.671877  -0.529329  24.981912   0.003826  -0.003619  -0.373231  -7.638429  -4.548786  -1.105845   0.000076  -0.000097
 -2.350828   0.864166   4.206735  -6.387675  25.837474   4.294169   6.389538  13.217174  -5.629641  -2.351848   8.384374  -5.293281  -0.068031  -4.653946   0.607114  -0.701136   9.977883  -2.827652   4.136703  19.234540  28.983917  -0.004395  71.040856   0.002349   4.810436   7.526819  -7.355654  -9.905121   8.601144   5.493732 -42.060743   7.942158  -8.907738  -0.461239 -84.227226  -0.444598  -2.583892  -4.957893  25.441501  19.423908 -12.572409   0.954689  18.787481   0.001961   0.000252 -27.043696 -18.581730  -4.052706  -6.701757  -0.002028  -0.006871 -24.108875 -12.568180  -0.782154  25.658484   0.003736  -0.003734  -0.657797  -7.553114  -4.440714  -0.971590   0.000114  -0.000113
 -2.348321   0.863794   4.208865  -6.275514  25.694853   4.359074   6.383895  13.255730  -5.579223  -2.398951   8.346020  -5.376908  -0.131836  -4.688521   0.626135  -0.576629   9.626707  -2.867305   4.254343  18.450857  28.928689  -0.002527  70.943523   0.000707   4.780985   7.558657  -7.467365 -10.040811   8.702029   5.388926 -42.589523   7.753280  -8.761702  -0.583702 -85.631430  -0.570324  -2.435369  -5.117498  25.609139  19.374921 -12.457212   0.638335  18.993959   0.001869   0.000113 -26.697606 -18.498730  -3.766934  -8.296213  -0.002182  -0.007805 -24.345799 -12.460444  -1.022193  26.289622   0.003590  -0.003813  -0.925370  -7.472221  -4.342255  -0.850674   0.000143  -0.000136
 -2.345907   0.863435   4.210915  -6.160818  25.523373   4.416966   6.379382  13.275029  -5.523427  -2.440317   8.292416  -5.451941  -0.190828  -4.720749   0.644310  -0.453009   9.279462  -2.903885   4.371936  17.705322  28.878798  -0.001084  70.846271  -0.000578   4.747508   7.547359  -7.566754 -10.167134   8.799216   5.286751 -43.081670   7.578992  -8.627397  -0.781794 -86.942365  -0.771442  -2.288119  -5.278871  25.775187  19.320247 -12.348025   0.327249  19.183820   0.001735  -0.000041 -26.375674 -18.420371  -3.500959  -9.783108  -0.002277  -0.007807 -24.563271 -12.353616  -1.243509  26.882899   0.003388  -0.003956  -1.175710  -7.396292  -4.251241  -0.740598   0.000161  -0.000180
 -2.343577   0.863227   4.213001  -6.053672  25.320571   4.435421   6.364311  13.280717  -5.438729  -2.479713   8.228300  -5.505761  -0.244763  -4.750947   0.663081  -0.327773   8.939323  -2.925327   4.489803  16.999854  28.840372   0.000014  70.750615  -0.001576   4.712541   7.511348  -7.647364 -10.283456   8.894505   5.181301 -43.538205   7.419725  -8.505622  -1.205554 -88.167020  -1.198115  -2.142624  -5.440956  25.931632  19.270801 -12.261468   0.058509  19.351332   0.001549  -0.000233 -26.211457 -18.359129  -3.257475 -10.254127  -0.001874  -0.006320 -24.724464 -12.261603  -1.404767  27.421967   0.003124  -0.004097  -1.420602  -7.326954  -4.162562  -0.638965   0.000163  -0.000238
 -2.341312   0.863081   4.215090  -5.943934  25.093959   4.442925   6.343387  13.270684  -5.353365  -2.518536   8.153512  -5.549592  -0.295434  -4.779489   0.681505  -0.205789   8.610407  -2.943432   4.604581  16.334858  28.808614   0.000819  70.659442  -0.002299   4.676769   7.463880  -7.715877 -10.391339   8.981651   5.084077 -43.963224   7.269909  -8.393711  -2.922800 -89.308897  -2.918036  -2.005064  -5.591335  26.079533  19.216130 -12.164372  -0.204858  19.512885   0.001380  -0.000398 -26.018429 -18.282926  -3.032984 -10.759978  -0.001662  -0.005142 -24.858687 -12.178259  -1.545786  27.919951   0.002841  -0.004249  -1.655224  -7.263214  -4.077734  -0.546313   0.000157  -0.000302
